<svg width="32" height="32" viewBox="0 0 32 32" fill="none" xmlns="http://www.w3.org/2000/svg">
<path fill-rule="evenodd" clip-rule="evenodd" d="M25.3333 16H18.6667V26.6667H25.3333C26.0697 26.6667 26.6667 26.0698 26.6667 25.3334V17.3334C26.6667 16.597 26.0697 16 25.3333 16ZM16 13.3334V29.3334H25.3333C27.5425 29.3334 29.3333 27.5425 29.3333 25.3334V17.3334C29.3333 15.1242 27.5425 13.3334 25.3333 13.3334H16Z" fill="#23262F"/>
<path d="M23.9999 20C23.9999 19.2636 23.403 18.6666 22.6666 18.6666C21.9302 18.6666 21.3333 19.2636 21.3333 20C21.3333 20.7363 21.9302 21.3333 22.6666 21.3333C23.403 21.3333 23.9999 20.7363 23.9999 20Z" fill="#23262F"/>
<path d="M23.9999 24C23.9999 23.2636 23.403 22.6666 22.6666 22.6666C21.9302 22.6666 21.3333 23.2636 21.3333 24C21.3333 24.7363 21.9302 25.3333 22.6666 25.3333C23.403 25.3333 23.9999 24.7363 23.9999 24Z" fill="#23262F"/>
<path fill-rule="evenodd" clip-rule="evenodd" d="M6.66675 29.3334C4.45761 29.3334 2.66675 27.5426 2.66675 25.3334V6.66675C2.66675 4.45761 4.45761 2.66675 6.66675 2.66675H14.6667C16.8759 2.66675 18.6667 4.45761 18.6667 6.66675V29.3334H6.66675ZM6.66675 5.33341H14.6667C15.4031 5.33341 16.0001 5.93037 16.0001 6.66675V26.6667H13.3334V25.3334C13.3334 24.597 12.7365 24.0001 12.0001 24.0001H9.33342C8.59704 24.0001 8.00008 24.597 8.00008 25.3334V26.6667H6.66675C5.93037 26.6667 5.33341 26.0698 5.33341 25.3334V6.66675C5.33341 5.93037 5.93037 5.33341 6.66675 5.33341Z" fill="#23262F"/>
<path d="M12 8C12.7364 8 13.3333 8.59695 13.3333 9.33333C13.3333 10.0697 12.7364 10.6667 12 10.6667H9.33333C8.59695 10.6667 8 10.0697 8 9.33333C8 8.59695 8.59695 8 9.33333 8H12Z" fill="#23262F"/>
<path d="M12 13.3333C12.7364 13.3333 13.3333 13.9303 13.3333 14.6667C13.3333 15.403 12.7364 16 12 16H9.33333C8.59695 16 8 15.403 8 14.6667C8 13.9303 8.59695 13.3333 9.33333 13.3333H12Z" fill="#23262F"/>
<path d="M13.3333 20C13.3333 19.2636 12.7364 18.6667 12 18.6667H9.33333C8.59695 18.6667 8 19.2636 8 20C8 20.7364 8.59695 21.3333 9.33333 21.3333H12C12.7364 21.3333 13.3333 20.7364 13.3333 20Z" fill="#23262F"/>
</svg>
