<svg width="16" height="16" viewBox="0 0 16 16" fill="none" xmlns="http://www.w3.org/2000/svg">
<path fill-rule="evenodd" clip-rule="evenodd" d="M8.00001 13.3333C10.9455 13.3333 13.3333 10.9454 13.3333 7.99992C13.3333 5.0544 10.9455 2.66659 8.00001 2.66659C5.05449 2.66659 2.66668 5.0544 2.66668 7.99992C2.66668 10.9454 5.05449 13.3333 8.00001 13.3333ZM8.00001 14.6666C11.6819 14.6666 14.6667 11.6818 14.6667 7.99992C14.6667 4.31802 11.6819 1.33325 8.00001 1.33325C4.31811 1.33325 1.33334 4.31802 1.33334 7.99992C1.33334 11.6818 4.31811 14.6666 8.00001 14.6666Z" fill="#353945"/>
<path fill-rule="evenodd" clip-rule="evenodd" d="M9.16444 12.1177C9.65691 11.1327 9.99999 9.67876 9.99999 7.99992C9.99999 6.32108 9.65691 4.8671 9.16444 3.88216C8.6321 2.81747 8.14336 2.66659 7.99999 2.66659C7.85662 2.66659 7.36788 2.81747 6.83554 3.88216C6.34307 4.8671 5.99999 6.32108 5.99999 7.99992C5.99999 9.67876 6.34307 11.1327 6.83554 12.1177C7.36788 13.1824 7.85662 13.3333 7.99999 13.3333C8.14336 13.3333 8.6321 13.1824 9.16444 12.1177ZM7.99999 14.6666C9.84094 14.6666 11.3333 11.6818 11.3333 7.99992C11.3333 4.31802 9.84094 1.33325 7.99999 1.33325C6.15904 1.33325 4.66666 4.31802 4.66666 7.99992C4.66666 11.6818 6.15904 14.6666 7.99999 14.6666Z" fill="#353945"/>
<path fill-rule="evenodd" clip-rule="evenodd" d="M14.6338 8.66659C14.6555 8.44731 14.6667 8.22492 14.6667 7.99992C14.6667 7.77492 14.6555 7.55252 14.6338 7.33325H1.36626C1.34449 7.55252 1.33334 7.77492 1.33334 7.99992C1.33334 8.22492 1.34449 8.44731 1.36626 8.66659H14.6338Z" fill="#353945"/>
</svg>
