<svg width="40" height="40" viewBox="0 0 40 40" fill="none" xmlns="http://www.w3.org/2000/svg">
<path fill-rule="evenodd" clip-rule="evenodd" d="M40 20C40 31.0457 31.0457 40 20 40C8.95431 40 0 31.0457 0 20C0 8.95431 8.95431 0 20 0C31.0457 0 40 8.95431 40 20ZM13.9444 23.5296C13.6846 22.456 12.6037 21.7963 11.5301 22.0561C10.4565 22.3159 9.79678 23.3968 10.0566 24.4704C10.5824 26.6434 11.8721 28.5582 13.6826 29.9161C15.491 31.2724 17.7189 32 20.0005 32C22.282 32 24.5099 31.2724 26.3183 29.9161C28.1289 28.5582 29.4185 26.6434 29.9444 24.4704C30.2041 23.3968 29.5444 22.3159 28.4708 22.0561C27.3972 21.7963 26.3163 22.456 26.0566 23.5296C25.7577 24.7647 25.0149 25.8937 23.9183 26.7161C22.8197 27.5401 21.4385 28 20.0005 28C18.5625 28 17.1813 27.5401 16.0826 26.7161C14.986 25.8937 14.2432 24.7647 13.9444 23.5296ZM16.3568 17.9679C15.27 18.1651 14.229 17.4439 14.0318 16.3571C14.023 16.3088 14.012 16.2652 13.9997 16.2262C13.9873 16.2652 13.9763 16.3088 13.9675 16.3571C13.7703 17.4439 12.7293 18.1651 11.6425 17.9679C10.5557 17.7706 9.83456 16.7297 10.0318 15.6429C10.1982 14.7257 10.6199 13.8331 11.306 13.1471C12.0011 12.452 12.946 12 13.9997 12C15.0533 12 15.9982 12.452 16.6933 13.1471C17.3794 13.8331 17.8011 14.7257 17.9675 15.6429C18.1647 16.7297 17.4436 17.7706 16.3568 17.9679ZM26.0318 16.3571C26.229 17.4439 27.27 18.1651 28.3568 17.9679C29.4436 17.7706 30.1647 16.7297 29.9675 15.6429C29.8011 14.7257 29.3794 13.8331 28.6933 13.1471C27.9982 12.452 27.0533 12 25.9997 12C24.946 12 24.0011 12.452 23.306 13.1471C22.6199 13.8331 22.1982 14.7257 22.0318 15.6429C21.8346 16.7297 22.5557 17.7706 23.6425 17.9679C24.7293 18.1651 25.7703 17.4439 25.9675 16.3571C25.9763 16.3088 25.9873 16.2652 25.9997 16.2262C26.012 16.2652 26.023 16.3088 26.0318 16.3571Z" fill="#FA8F54"/>
</svg>
