<svg width="24" height="25" viewBox="0 0 24 25" fill="none" xmlns="http://www.w3.org/2000/svg">
<path d="M21.1604 0H8.98805C7.63312 0 6.53675 1.09638 6.53675 2.4513V9.32593L0.802404 14.9871C0.630588 15.157 0.513128 15.3742 0.464932 15.611C0.416735 15.8478 0.439976 16.0935 0.531703 16.3171C0.62343 16.5407 0.779509 16.732 0.980132 16.8667C1.18075 17.0014 1.41688 17.0735 1.65853 17.0738V23.1715C1.65853 23.495 1.78702 23.8052 2.01573 24.0339C2.24444 24.2626 2.55464 24.3911 2.87808 24.3911H22.3909C22.7144 24.3911 23.0246 24.2626 23.2533 24.0339C23.482 23.8052 23.6105 23.495 23.6105 23.1715V2.45008C23.6105 1.09638 22.5153 0 21.1604 0ZM11.3198 15.9896V21.952H4.09764V15.1615L7.74045 11.565L11.3198 15.2273V15.9896ZM13.8541 8.53688H11.415V6.09777H13.8541V8.53688ZM18.7323 18.2933H16.2932V15.8542H18.7323V18.2933ZM18.7323 13.4151H16.2932V10.976H18.7323V13.4151ZM18.7323 8.53688H16.2932V6.09777H18.7323V8.53688Z" fill="#292E3D"/>
</svg>
